<?xml version="1.0" encoding="UTF-8" standalone="no"?>
<svg width="300px" height="300px" viewBox="0 0 300 300" version="1.1" xmlns="http://www.w3.org/2000/svg" xmlns:xlink="http://www.w3.org/1999/xlink" xmlns:sketch="http://www.bohemiancoding.com/sketch/ns">
    <!-- Generator: Sketch 3.3.2 (12043) - http://www.bohemiancoding.com/sketch -->
    <title>add-new-plus-handheld</title>
    <desc>Created with Sketch.</desc>
    <defs></defs>
    <g id="Page-1" stroke="none" stroke-width="1" fill="none" fill-rule="evenodd" sketch:type="MSPage">
        <g id="add-new-plus-handheld" sketch:type="MSArtboardGroup" fill="#232323">
            <path d="M148.593103,40.9655142 C138.744827,40.9655142 134.524137,43.7793074 134.524137,50.3448248 L134.524137,134.289655 L50.5793076,134.289655 C44.0137901,134.289655 41.1999969,140.386207 41.1999969,150.234483 L41.1999969,153.517241 C41.1999969,163.365518 44.0137901,165.710345 50.5793076,165.710345 L134.524137,165.710345 L134.524137,249.655175 C134.524137,256.220693 138.744827,259.034486 148.593103,259.034486 L151.875862,259.034486 C161.724138,259.034486 165.944828,256.220693 165.944828,249.655175 L165.944828,165.710345 L249.420692,165.710345 C255.98621,165.710345 258.800003,161.489655 258.800003,151.641379 L258.800003,148.358621 C258.800003,138.510345 255.98621,134.289655 249.420692,134.289655 L165.944828,134.289655 L165.944828,50.3448248 C165.944828,43.7793074 161.724138,40.9655142 151.875862,40.9655142 L148.593103,40.9655142 Z" id="+" sketch:type="MSShapeGroup"></path>
        </g>
    </g>
</svg>